<?xml version="1.0" standalone="no"?>
<!DOCTYPE svg PUBLIC "-//W3C//DTD SVG 20010904//EN"
 "http://www.w3.org/TR/2001/REC-SVG-20010904/DTD/svg10.dtd">
<svg version="1.0" xmlns="http://www.w3.org/2000/svg"
 width="387.000000pt" height="387.000000pt" viewBox="0 0 387.000000 387.000000"
 preserveAspectRatio="xMidYMid meet">
<metadata>
Created by potrace 1.11, written by Peter Selinger 2001-2013
</metadata>
<g transform="translate(0.000000,387.000000) scale(0.100000,-0.100000)"
fill="#000000" stroke="none">
<path d="M2447 3834 c-3 -4 -37 -8 -74 -9 -37 -1 -68 -4 -68 -5 0 -1 -16 -3
-35 -5 -40 -3 -229 -52 -245 -63 -5 -4 -28 -14 -50 -21 -42 -15 -243 -112
-309 -150 -76 -44 -293 -195 -316 -221 -3 -3 -27 -23 -55 -45 -63 -50 -306
-292 -366 -365 -25 -30 -74 -93 -107 -140 -34 -47 -66 -89 -70 -95 -4 -5 -11
-17 -15 -25 -4 -8 -16 -28 -27 -45 -11 -16 -23 -37 -27 -45 -3 -8 -15 -26 -25
-39 -10 -13 -15 -27 -12 -32 3 -5 1 -9 -3 -9 -5 0 -22 -29 -38 -65 -16 -36
-32 -65 -35 -65 -4 0 -7 -7 -8 -15 -1 -8 -3 -22 -4 -30 -1 -8 -4 -15 -8 -15
-4 0 -15 -28 -25 -62 -11 -35 -24 -66 -30 -70 -5 -4 -7 -8 -3 -8 4 0 3 -11 -2
-25 -12 -33 -50 -216 -57 -275 -8 -75 -10 -234 -2 -245 4 -5 6 -21 5 -35 -1
-14 1 -29 4 -35 4 -5 12 -37 19 -70 7 -33 17 -64 21 -70 5 -5 9 -13 9 -18 0
-4 9 -28 21 -53 11 -26 20 -48 20 -50 0 -2 23 -43 52 -91 53 -90 153 -226 200
-274 16 -15 28 -30 28 -32 0 -6 144 -149 187 -187 123 -108 306 -250 321 -250
4 0 19 -10 33 -23 25 -22 48 -36 104 -66 16 -9 35 -21 42 -27 7 -7 34 -22 60
-35 26 -12 51 -27 55 -33 4 -6 8 -7 8 -3 0 4 17 -4 37 -18 21 -14 42 -25 47
-25 5 0 37 -13 72 -30 34 -16 74 -32 88 -36 14 -3 26 -10 26 -16 0 -5 4 -7 8
-4 4 2 21 -2 37 -9 41 -19 123 -45 140 -45 8 0 15 -4 15 -8 0 -4 8 -8 18 -9 9
-1 29 -4 45 -7 15 -3 38 -8 52 -10 14 -3 33 -7 43 -10 128 -39 410 -39 542 -1
60 17 163 65 168 77 2 4 10 8 18 8 20 0 166 149 189 193 11 20 23 37 28 37 4
0 6 4 3 9 -3 4 3 19 14 31 11 13 20 27 20 33 0 5 6 23 14 40 38 88 51 122 48
124 -1 2 5 17 14 34 8 17 13 37 10 45 -3 8 -2 14 3 14 5 0 12 15 16 33 4 17 9
37 11 42 2 6 5 21 8 35 3 14 8 36 12 50 10 46 44 235 49 270 10 94 16 151 21
215 9 107 12 679 5 690 -4 6 -7 43 -6 83 0 39 -2 72 -5 72 -4 0 -7 24 -8 53
-3 90 -9 144 -16 156 -4 6 -6 24 -5 39 1 15 -1 34 -4 42 -3 8 -11 49 -18 90
-7 41 -14 83 -16 93 -2 9 -4 25 -6 35 -13 71 -51 202 -59 202 -6 0 -36 -25
-66 -55 -31 -30 -59 -55 -63 -55 -4 0 -14 -7 -23 -15 -26 -27 -154 -85 -224
-103 -37 -9 -69 -20 -72 -23 -3 -3 -14 -6 -25 -6 -74 -5 -235 -15 -259 -16
-26 -2 -33 -9 -50 -52 -11 -28 -25 -53 -30 -57 -6 -4 -8 -8 -4 -8 15 0 -118
-276 -229 -472 -23 -43 -43 -81 -43 -85 0 -5 17 -17 38 -28 69 -36 147 -83
169 -102 104 -85 136 -117 181 -174 56 -72 114 -181 131 -244 21 -80 24 -101
26 -185 2 -47 4 -86 5 -87 6 -7 5 -30 -2 -52 -5 -14 -4 -28 2 -36 5 -6 7 -15
4 -18 -4 -3 -8 -34 -9 -69 -4 -80 -13 -155 -26 -238 -6 -36 -13 -83 -15 -105
-3 -22 -8 -47 -11 -55 -3 -8 -7 -17 -8 -20 0 -3 -7 -30 -14 -60 -28 -111 -84
-164 -163 -155 -96 12 -148 83 -144 192 4 70 10 104 47 252 12 47 23 97 24
111 1 14 5 34 8 45 18 57 29 263 14 272 -4 2 -5 8 -2 13 7 11 -34 133 -47 141
-5 3 -10 10 -10 15 -2 21 -45 66 -98 103 -58 41 -129 76 -215 106 -27 9 -57
20 -65 22 -34 13 -52 8 -71 -16 -10 -14 -29 -39 -42 -56 -99 -132 -277 -314
-328 -337 -16 -7 -29 -16 -29 -19 0 -15 -98 -42 -151 -42 -64 0 -148 29 -216
75 -23 15 -44 28 -46 28 -14 0 -162 141 -204 195 -81 104 -102 201 -55 245 12
12 22 18 22 14 0 -3 6 -1 14 5 11 9 20 10 35 1 12 -6 21 -8 21 -5 0 4 6 0 14
-7 7 -7 72 -70 143 -139 145 -142 166 -153 230 -121 87 45 233 239 340 452 16
30 31 57 36 58 4 2 5 8 1 13 -3 5 0 9 5 9 6 0 11 6 11 13 0 6 10 32 22 57 12
25 22 47 23 50 1 3 12 28 24 55 32 70 50 115 50 120 0 3 7 18 15 33 8 15 27
61 41 102 14 41 28 82 32 90 3 8 7 17 8 20 12 44 37 129 42 140 3 8 8 29 10
45 4 29 3 30 -36 29 -22 -1 -44 -5 -50 -9 -6 -3 -11 -1 -11 5 0 6 -5 8 -11 4
-6 -3 -29 -8 -52 -10 -60 -6 -76 -10 -140 -32 -52 -19 -132 -70 -149 -97 -3
-5 -16 -21 -28 -35 -24 -27 -55 -90 -65 -133 -4 -15 -11 -30 -16 -33 -5 -3 -7
-10 -4 -15 4 -5 3 -15 -2 -21 -4 -7 -8 -22 -9 -33 -6 -69 -36 -139 -71 -162
-58 -38 -126 -15 -162 56 -19 37 -23 138 -7 201 15 65 64 167 93 198 7 7 13
17 13 21 0 11 95 104 141 137 54 39 108 66 176 88 52 17 69 21 158 36 55 9
366 5 430 -6 22 -3 59 -7 82 -8 24 0 43 -3 43 -6 0 -3 15 -6 33 -7 17 -1 52
-4 77 -7 62 -7 235 -8 295 -2 63 6 150 22 150 26 0 1 10 3 23 6 38 7 145 60
177 89 72 63 135 131 135 145 0 8 -9 34 -20 58 -10 23 -19 45 -19 47 -1 12
-48 115 -79 170 -18 33 -35 68 -39 78 -3 9 -10 17 -15 17 -5 0 -6 5 -3 10 3 6
2 10 -2 10 -5 0 -19 18 -33 40 -14 22 -29 40 -34 40 -5 0 -7 3 -4 6 9 8 -122
132 -154 147 -16 6 -28 15 -28 19 0 5 -4 8 -9 8 -5 0 -26 8 -47 17 -22 9 -45
16 -51 14 -7 -1 -13 2 -13 6 0 5 -8 9 -17 10 -10 1 -34 5 -53 9 -19 4 -62 8
-95 8 -33 1 -63 4 -66 9 -3 4 -8 4 -12 1z m67 -535 c75 -51 108 -176 67 -256
-49 -98 -182 -136 -276 -79 -52 30 -75 75 -76 143 -1 72 18 118 71 172 62 63
141 70 214 20z m-393 -2377 c55 -22 126 -117 137 -187 25 -151 -21 -260 -140
-334 -21 -12 -38 -19 -38 -16 0 4 -7 2 -15 -5 -8 -7 -15 -9 -15 -5 0 4 -6 2
-13 -4 -8 -6 -16 -8 -19 -5 -3 3 -20 7 -38 9 -41 5 -119 45 -131 66 -5 10 -15
24 -24 32 -28 29 -53 115 -51 175 4 92 33 160 91 218 77 77 156 94 256 56z
m109 -552 c0 -5 -5 -10 -11 -10 -5 0 -7 5 -4 10 3 6 8 10 11 10 2 0 4 -4 4
-10z m-84 -12 c4 -7 4 -10 -1 -6 -4 4 -14 3 -21 -3 -8 -7 -14 -6 -20 2 -4 7
-3 9 4 5 6 -3 13 -2 17 4 8 13 12 13 21 -2z"/>
<path d="M1954 854 c-45 -24 -75 -55 -96 -101 -44 -99 -13 -203 82 -272 30
-22 47 -27 89 -25 138 4 218 167 148 301 -47 88 -151 134 -223 97z"/>
</g>
</svg>
